# xmcd
#
# Track frame offsets:
# 150
# 17138
# 30177
# 43727
# 57619
# 73316
# 87329
# 96846
# 105920
# 119878
# 129790
# 144311
# 157478
# 170063
# 184393
# 192692
# 202665
# 214330
# 222848
# 233593
# 242118
# 251411
# 263807
# 272324
# 282295
# 290425
# 301268
# 308141
#
# Disc length: 4314 seconds
#
#
# Revision: 0
# Processed by: cddbd v1.5.2PL0 Copyright (c) Steve Scherf et al.
# Submitted via: FreeRIP 2.95 
#
DISCID=a610d81c
DTITLE=Os Feras Do Baile - 5 Anos
DYEAR=2007
DGENRE=Forro
TTITLE0=Carro De Play Boy
TTITLE1=Cabeca De Guidom
TTITLE2=Vai Descendo Vai
TTITLE3=Pick-Up Turbinada
TTITLE4=Melo Do Corno
TTITLE5=Queiroz
TTITLE6=Borogodo
TTITLE7=Malicia
TTITLE8=Quer Ir Mais Eu Vambora
TTITLE9=Bachim Careca E Barrigudo
TTITLE10=Mexe Mexe - Bpiola
TTITLE11=Ela Quer Me Dar Amor
TTITLE12=Popozuda
TTITLE13=Deixe As Aguas Rolar
TTITLE14=Amor De Primavera
TTITLE15=To Indo Embora
TTITLE16=Bom De +
TTITLE17=O De Bebado
TTITLE18=Companheiro E Fedaputa
TTITLE19=Demorou
TTITLE20=Vem Dancar Forro
TTITLE21=Abrigo
TTITLE22=Cha La La I Love
TTITLE23=Baby I You Love
TTITLE24=Tikim Dum Tikim Doutro
TTITLE25=Da Alcool Pra Mim
TTITLE26=Tobas Beer
TTITLE27=Bebo Pra Carai
EXTD=
EXTT0=
EXTT1=
EXTT2=
EXTT3=
EXTT4=
EXTT5=
EXTT6=
EXTT7=
EXTT8=
EXTT9=
EXTT10=
EXTT11=
EXTT12=
EXTT13=
EXTT14=
EXTT15=
EXTT16=
EXTT17=
EXTT18=
EXTT19=
EXTT20=
EXTT21=
EXTT22=
EXTT23=
EXTT24=
EXTT25=
EXTT26=
EXTT27=
PLAYORDER=
